<?xml version="1.0" encoding="UTF-8" standalone="no"?><!DOCTYPE svg PUBLIC "-//W3C//DTD SVG 1.1//EN" "http://www.w3.org/Graphics/SVG/1.1/DTD/svg11.dtd"><svg width="100%" height="100%" viewBox="0 0 425 414" version="1.1" xmlns="http://www.w3.org/2000/svg" xmlns:xlink="http://www.w3.org/1999/xlink" xml:space="preserve" xmlns:serif="http://www.serif.com/" style="fill-rule:evenodd;clip-rule:evenodd;stroke-linejoin:round;stroke-miterlimit:2;"><path d="M212.083,0c-117.122,0 -212.083,94.961 -212.083,212.109c0,93.711 60.768,173.204 145.052,201.263c10.612,1.941 14.479,-4.609 14.479,-10.234c0,-5.026 -0.182,-18.372 -0.286,-36.068c-58.998,12.813 -71.446,-28.437 -71.446,-28.437c-9.648,-24.505 -23.554,-31.029 -23.554,-31.029c-19.258,-13.151 1.458,-12.89 1.458,-12.89c21.289,1.497 32.487,21.862 32.487,21.862c18.919,32.408 49.649,23.046 61.732,17.617c1.927,-13.698 7.396,-23.047 13.463,-28.347c-47.096,-5.351 -96.614,-23.554 -96.614,-104.83c-0,-23.151 8.268,-42.084 21.836,-56.914c-2.188,-5.365 -9.466,-26.928 2.07,-56.133c0,-0 17.813,-5.703 58.333,21.745c16.914,-4.714 35.066,-7.058 53.099,-7.136c18.008,0.078 36.159,2.422 53.099,7.136c40.495,-27.448 58.269,-21.745 58.269,-21.745c11.575,29.205 4.296,50.768 2.109,56.133c13.594,14.83 21.81,33.763 21.81,56.914c-0,81.484 -49.597,99.414 -96.849,104.661c7.617,6.55 14.401,19.492 14.401,39.284c-0,28.346 -0.26,51.224 -0.26,58.177c-0,5.677 3.815,12.279 14.583,10.208c84.219,-28.112 144.935,-107.552 144.935,-201.237c-0,-117.148 -94.974,-212.109 -212.123,-212.109" style="fill:#fff;"/></svg>