<svg width="33" height="32" viewBox="0 0 33 32" fill="none" xmlns="http://www.w3.org/2000/svg">
    <path d="M1.07906 31L11.1256 21M7.77674 12.6667C7.77674 14.1988 8.07991 15.7158 8.66894 17.1313C9.25797 18.5468 10.1213 19.8329 11.2097 20.9162C12.2981 21.9996 13.5902 22.859 15.0123 23.4453C16.4343 24.0316 17.9585 24.3333 19.4977 24.3333C21.0369 24.3333 22.561 24.0316 23.9831 23.4453C25.4051 22.859 26.6972 21.9996 27.7856 20.9162C28.874 19.8329 29.7374 18.5468 30.3264 17.1313C30.9154 15.7158 31.2186 14.1988 31.2186 12.6667C31.2186 9.57247 29.9837 6.60501 27.7856 4.41709C25.5875 2.22916 22.6063 1 19.4977 1C16.3891 1 13.4078 2.22916 11.2097 4.41709C9.01162 6.60501 7.77674 9.57247 7.77674 12.6667Z" stroke="#25292E" stroke-width="2" stroke-linecap="round" stroke-linejoin="round"/>
</svg>
